<svg xmlns="http://www.w3.org/2000/svg" viewBox="0 0 512 512" role="img" aria-label="Game of Trains">
  <!-- Maskable-safe: keep key art within the central 80% safe zone. -->
  <rect width="512" height="512" rx="96" fill="#4fc1e9"/>
  <circle cx="256" cy="150" r="92" fill="#ffce54"/>
  <rect y="300" width="512" height="212" fill="#a0d468"/>
  <!-- little red train -->
  <g transform="translate(96 196)">
    <rect x="8" y="64" width="300" height="20" rx="6" fill="#8a6d3b"/>
    <rect x="20" y="20" width="120" height="60" rx="8" fill="#e9573f"/>
    <rect x="150" y="8" width="160" height="72" rx="8" fill="#e9573f"/>
    <rect x="40" y="34" width="26" height="24" rx="4" fill="#fff"/>
    <rect x="168" y="22" width="30" height="28" rx="4" fill="#fff"/>
    <rect x="212" y="22" width="30" height="28" rx="4" fill="#fff"/>
    <rect x="256" y="22" width="30" height="28" rx="4" fill="#fff"/>
    <rect x="120" y="2" width="16" height="22" rx="3" fill="#3b2f2f"/>
    <circle cx="66" cy="96" r="18" fill="#2b3a42"/>
    <circle cx="166" cy="96" r="18" fill="#2b3a42"/>
    <circle cx="266" cy="96" r="18" fill="#2b3a42"/>
  </g>
</svg>
